<svg width="504" height="55" viewBox="0 0 504 55" fill="none" xmlns="http://www.w3.org/2000/svg">
<rect width="504" height="55" rx="27.5" fill="#4F95FF" fill-opacity="0.18"/>
<path d="M36.42 31.54H30.86L29.6 35H27.4L32.38 21.8H34.94L39.92 35H37.66L36.42 31.54ZM35.78 29.8L34.26 25.56L33.66 23.66H33.6L33.04 25.52L31.48 29.8H35.78ZM50.0191 25L46.0391 35H43.6991L39.6991 25H42.0591L44.8791 33.26L47.7791 25H50.0191ZM60.2297 33.6C60.523 33.6 60.7697 33.5733 60.9697 33.52L60.8297 34.96C60.4697 35.12 60.0564 35.2 59.5897 35.2C59.0164 35.2 58.5564 35.0867 58.2097 34.86C57.8764 34.6333 57.6564 34.2533 57.5497 33.72C57.243 34.1867 56.7897 34.5533 56.1897 34.82C55.5897 35.0733 54.9164 35.2 54.1697 35.2C53.1964 35.2 52.4097 34.9733 51.8097 34.52C51.2097 34.0667 50.9097 33.42 50.9097 32.58C50.9097 31.7933 51.2364 31.1333 51.8897 30.6C52.543 30.0533 53.5164 29.6667 54.8097 29.44L57.3497 29V28.46C57.3497 27.8467 57.1697 27.3667 56.8097 27.02C56.4497 26.66 55.9497 26.48 55.3097 26.48C53.9897 26.48 53.1297 27.08 52.7297 28.28L51.0697 27.4C51.3097 26.6 51.7964 25.9667 52.5297 25.5C53.2764 25.0333 54.1897 24.8 55.2697 24.8C56.563 24.8 57.5897 25.1 58.3497 25.7C59.1097 26.3 59.4897 27.18 59.4897 28.34V32.86C59.4897 33.1133 59.543 33.3 59.6497 33.42C59.7697 33.54 59.963 33.6 60.2297 33.6ZM54.6297 33.58C55.3497 33.58 55.983 33.4067 56.5297 33.06C57.0764 32.7133 57.3497 32.2533 57.3497 31.68V30.48L55.1697 30.92C54.4764 31.0533 53.963 31.24 53.6297 31.48C53.2964 31.72 53.1297 32.04 53.1297 32.44C53.1297 32.8133 53.2564 33.1 53.5097 33.3C53.7764 33.4867 54.1497 33.58 54.6297 33.58ZM64.0759 23.32C63.6226 23.32 63.2693 23.2067 63.0159 22.98C62.7626 22.74 62.6359 22.4067 62.6359 21.98C62.6359 21.5533 62.7626 21.2267 63.0159 21C63.2693 20.7733 63.6226 20.66 64.0759 20.66C64.5293 20.66 64.8759 20.7733 65.1159 21C65.3693 21.2267 65.4959 21.5533 65.4959 21.98C65.4959 22.4067 65.3693 22.74 65.1159 22.98C64.8759 23.2067 64.5293 23.32 64.0759 23.32ZM65.1359 35H62.9959V25H65.1359V35ZM70.5642 32.08C70.5642 32.5733 70.6376 32.92 70.7842 33.12C70.9309 33.3067 71.2042 33.4 71.6042 33.4C71.8576 33.4 72.0709 33.3867 72.2442 33.36C72.4309 33.32 72.6576 33.2467 72.9242 33.14L72.6842 34.86C72.2309 35.0867 71.6776 35.2 71.0242 35.2C70.1309 35.2 69.4709 34.9733 69.0442 34.52C68.6309 34.0667 68.4242 33.3533 68.4242 32.38V20.5H70.5642V32.08ZM83.3742 33.6C83.6676 33.6 83.9142 33.5733 84.1142 33.52L83.9742 34.96C83.6142 35.12 83.2009 35.2 82.7342 35.2C82.1609 35.2 81.7009 35.0867 81.3542 34.86C81.0209 34.6333 80.8009 34.2533 80.6942 33.72C80.3876 34.1867 79.9342 34.5533 79.3342 34.82C78.7342 35.0733 78.0609 35.2 77.3142 35.2C76.3409 35.2 75.5542 34.9733 74.9542 34.52C74.3542 34.0667 74.0542 33.42 74.0542 32.58C74.0542 31.7933 74.3809 31.1333 75.0342 30.6C75.6876 30.0533 76.6609 29.6667 77.9542 29.44L80.4942 29V28.46C80.4942 27.8467 80.3142 27.3667 79.9542 27.02C79.5942 26.66 79.0942 26.48 78.4542 26.48C77.1342 26.48 76.2742 27.08 75.8742 28.28L74.2142 27.4C74.4542 26.6 74.9409 25.9667 75.6742 25.5C76.4209 25.0333 77.3342 24.8 78.4142 24.8C79.7076 24.8 80.7342 25.1 81.4942 25.7C82.2542 26.3 82.6342 27.18 82.6342 28.34V32.86C82.6342 33.1133 82.6876 33.3 82.7942 33.42C82.9142 33.54 83.1076 33.6 83.3742 33.6ZM77.7742 33.58C78.4942 33.58 79.1276 33.4067 79.6742 33.06C80.2209 32.7133 80.4942 32.2533 80.4942 31.68V30.48L78.3142 30.92C77.6209 31.0533 77.1076 31.24 76.7742 31.48C76.4409 31.72 76.2742 32.04 76.2742 32.44C76.2742 32.8133 76.4009 33.1 76.6542 33.3C76.9209 33.4867 77.2942 33.58 77.7742 33.58ZM91.5205 24.8C92.8938 24.8 93.9738 25.2667 94.7605 26.2C95.5471 27.12 95.9405 28.3933 95.9405 30.02C95.9405 31.6467 95.5471 32.92 94.7605 33.84C93.9738 34.7467 92.8938 35.2 91.5205 35.2C90.7338 35.2 90.0405 35.0133 89.4405 34.64C88.8538 34.2667 88.4138 33.7667 88.1205 33.14L88.0205 35H86.1405V20.5H88.2805V26.6C88.5871 26.04 89.0205 25.6 89.5805 25.28C90.1538 24.96 90.8005 24.8 91.5205 24.8ZM91.0405 33.48C91.9071 33.48 92.5805 33.1733 93.0605 32.56C93.5538 31.9467 93.8005 31.0933 93.8005 30C93.8005 28.9067 93.5538 28.06 93.0605 27.46C92.5805 26.8467 91.9071 26.54 91.0405 26.54C90.2271 26.54 89.5738 26.8133 89.0805 27.36C88.6005 27.9067 88.3338 28.66 88.2805 29.62V30.38C88.3338 31.3533 88.6005 32.1133 89.0805 32.66C89.5738 33.2067 90.2271 33.48 91.0405 33.48ZM100.799 32.08C100.799 32.5733 100.872 32.92 101.019 33.12C101.165 33.3067 101.439 33.4 101.839 33.4C102.092 33.4 102.305 33.3867 102.479 33.36C102.665 33.32 102.892 33.2467 103.159 33.14L102.919 34.86C102.465 35.0867 101.912 35.2 101.259 35.2C100.365 35.2 99.7053 34.9733 99.2786 34.52C98.8653 34.0667 98.6586 33.3533 98.6586 32.38V20.5H100.799V32.08ZM113.889 29.7C113.889 30.0867 113.862 30.4533 113.809 30.8H106.489C106.609 31.68 106.922 32.3533 107.429 32.82C107.936 33.2733 108.589 33.5 109.389 33.5C110.042 33.5 110.582 33.3867 111.009 33.16C111.449 32.92 111.749 32.58 111.909 32.14L113.689 32.88C112.942 34.4267 111.509 35.2 109.389 35.2C107.816 35.2 106.582 34.74 105.689 33.82C104.809 32.9 104.369 31.6267 104.369 30C104.369 28.36 104.796 27.0867 105.649 26.18C106.502 25.26 107.702 24.8 109.249 24.8C110.716 24.8 111.856 25.2467 112.669 26.14C113.482 27.0333 113.889 28.22 113.889 29.7ZM109.249 26.5C108.476 26.5 107.849 26.7267 107.369 27.18C106.902 27.6333 106.609 28.2933 106.489 29.16H111.889C111.782 28.32 111.496 27.6667 111.029 27.2C110.576 26.7333 109.982 26.5 109.249 26.5ZM129.242 34.34C128.922 34.6067 128.528 34.82 128.062 34.98C127.608 35.1267 127.115 35.2 126.582 35.2C125.662 35.2 124.922 34.9733 124.362 34.52C123.815 34.0533 123.535 33.3333 123.522 32.36V26.68H121.622V25H123.522V22.66L125.662 22.06V25H129.162V26.68H125.662V32C125.662 32.48 125.788 32.84 126.042 33.08C126.308 33.3067 126.668 33.42 127.122 33.42C127.735 33.42 128.275 33.2067 128.742 32.78L129.242 34.34ZM135.638 24.8C137.198 24.8 138.418 25.26 139.298 26.18C140.178 27.1 140.618 28.3733 140.618 30C140.618 31.6267 140.178 32.9 139.298 33.82C138.418 34.74 137.198 35.2 135.638 35.2C134.078 35.2 132.858 34.74 131.978 33.82C131.098 32.9 130.658 31.6267 130.658 30C130.658 28.3733 131.098 27.1 131.978 26.18C132.858 25.26 134.078 24.8 135.638 24.8ZM135.638 26.48C134.731 26.48 134.031 26.7867 133.538 27.4C133.058 28 132.818 28.8667 132.818 30C132.818 31.1333 133.058 32.0067 133.538 32.62C134.031 33.22 134.731 33.52 135.638 33.52C136.545 33.52 137.245 33.2133 137.738 32.6C138.231 31.9867 138.478 31.12 138.478 30C138.478 28.88 138.231 28.0133 137.738 27.4C137.245 26.7867 136.545 26.48 135.638 26.48ZM159.131 20.5V35H157.251L157.131 33.22C156.838 33.82 156.391 34.3 155.791 34.66C155.204 35.02 154.531 35.2 153.771 35.2C152.398 35.2 151.311 34.7467 150.511 33.84C149.724 32.92 149.331 31.6467 149.331 30.02C149.331 28.3933 149.724 27.12 150.511 26.2C151.311 25.2667 152.398 24.8 153.771 24.8C154.504 24.8 155.151 24.9667 155.711 25.3C156.271 25.62 156.698 26.06 156.991 26.62V20.5H159.131ZM154.251 33.48C155.091 33.48 155.758 33.18 156.251 32.58C156.744 31.98 156.991 31.16 156.991 30.12V29.88C156.991 28.84 156.744 28.0267 156.251 27.44C155.758 26.84 155.091 26.54 154.251 26.54C153.384 26.54 152.704 26.8467 152.211 27.46C151.731 28.06 151.491 28.9067 151.491 30C151.491 31.0933 151.731 31.9467 152.211 32.56C152.704 33.1733 153.384 33.48 154.251 33.48ZM166.849 24.8C168.409 24.8 169.629 25.26 170.509 26.18C171.389 27.1 171.829 28.3733 171.829 30C171.829 31.6267 171.389 32.9 170.509 33.82C169.629 34.74 168.409 35.2 166.849 35.2C165.289 35.2 164.069 34.74 163.189 33.82C162.309 32.9 161.869 31.6267 161.869 30C161.869 28.3733 162.309 27.1 163.189 26.18C164.069 25.26 165.289 24.8 166.849 24.8ZM166.849 26.48C165.942 26.48 165.242 26.7867 164.749 27.4C164.269 28 164.029 28.8667 164.029 30C164.029 31.1333 164.269 32.0067 164.749 32.62C165.242 33.22 165.942 33.52 166.849 33.52C167.756 33.52 168.456 33.2133 168.949 32.6C169.442 31.9867 169.689 31.12 169.689 30C169.689 28.88 169.442 28.0133 168.949 27.4C168.456 26.7867 167.756 26.48 166.849 26.48ZM189.722 33.6C190.015 33.6 190.262 33.5733 190.462 33.52L190.322 34.96C189.962 35.12 189.549 35.2 189.082 35.2C188.509 35.2 188.049 35.0867 187.702 34.86C187.369 34.6333 187.149 34.2533 187.042 33.72C186.735 34.1867 186.282 34.5533 185.682 34.82C185.082 35.0733 184.409 35.2 183.662 35.2C182.689 35.2 181.902 34.9733 181.302 34.52C180.702 34.0667 180.402 33.42 180.402 32.58C180.402 31.7933 180.729 31.1333 181.382 30.6C182.035 30.0533 183.009 29.6667 184.302 29.44L186.842 29V28.46C186.842 27.8467 186.662 27.3667 186.302 27.02C185.942 26.66 185.442 26.48 184.802 26.48C183.482 26.48 182.622 27.08 182.222 28.28L180.562 27.4C180.802 26.6 181.289 25.9667 182.022 25.5C182.769 25.0333 183.682 24.8 184.762 24.8C186.055 24.8 187.082 25.1 187.842 25.7C188.602 26.3 188.982 27.18 188.982 28.34V32.86C188.982 33.1133 189.035 33.3 189.142 33.42C189.262 33.54 189.455 33.6 189.722 33.6ZM184.122 33.58C184.842 33.58 185.475 33.4067 186.022 33.06C186.569 32.7133 186.842 32.2533 186.842 31.68V30.48L184.662 30.92C183.969 31.0533 183.455 31.24 183.122 31.48C182.789 31.72 182.622 32.04 182.622 32.44C182.622 32.8133 182.749 33.1 183.002 33.3C183.269 33.4867 183.642 33.58 184.122 33.58ZM197.868 24.8C198.975 24.8 199.875 25.12 200.568 25.76C201.275 26.4 201.628 27.32 201.628 28.52V35H199.488V29.2C199.488 27.44 198.775 26.56 197.348 26.56C196.601 26.56 195.961 26.82 195.428 27.34C194.895 27.8467 194.628 28.6333 194.628 29.7V35H192.488V25H194.388L194.488 26.66C194.821 26.0333 195.281 25.5667 195.868 25.26C196.455 24.9533 197.121 24.8 197.868 24.8ZM212.455 23.32C212.002 23.32 211.648 23.2067 211.395 22.98C211.142 22.74 211.015 22.4067 211.015 21.98C211.015 21.5533 211.142 21.2267 211.395 21C211.648 20.7733 212.002 20.66 212.455 20.66C212.908 20.66 213.255 20.7733 213.495 21C213.748 21.2267 213.875 21.5533 213.875 21.98C213.875 22.4067 213.748 22.74 213.495 22.98C213.255 23.2067 212.908 23.32 212.455 23.32ZM213.515 35H211.375V25H213.515V35ZM222.243 24.8C223.35 24.8 224.25 25.12 224.943 25.76C225.65 26.4 226.003 27.32 226.003 28.52V35H223.863V29.2C223.863 27.44 223.15 26.56 221.723 26.56C220.976 26.56 220.336 26.82 219.803 27.34C219.27 27.8467 219.003 28.6333 219.003 29.7V35H216.863V25H218.763L218.863 26.66C219.196 26.0333 219.656 25.5667 220.243 25.26C220.83 24.9533 221.496 24.8 222.243 24.8ZM235.609 34.34C235.289 34.6067 234.895 34.82 234.429 34.98C233.975 35.1267 233.482 35.2 232.949 35.2C232.029 35.2 231.289 34.9733 230.729 34.52C230.182 34.0533 229.902 33.3333 229.889 32.36V26.68H227.989V25H229.889V22.66L232.029 22.06V25H235.529V26.68H232.029V32C232.029 32.48 232.155 32.84 232.409 33.08C232.675 33.3067 233.035 33.42 233.489 33.42C234.102 33.42 234.642 33.2067 235.109 32.78L235.609 34.34ZM246.545 29.7C246.545 30.0867 246.519 30.4533 246.465 30.8H239.145C239.265 31.68 239.579 32.3533 240.085 32.82C240.592 33.2733 241.245 33.5 242.045 33.5C242.699 33.5 243.239 33.3867 243.665 33.16C244.105 32.92 244.405 32.58 244.565 32.14L246.345 32.88C245.599 34.4267 244.165 35.2 242.045 35.2C240.472 35.2 239.239 34.74 238.345 33.82C237.465 32.9 237.025 31.6267 237.025 30C237.025 28.36 237.452 27.0867 238.305 26.18C239.159 25.26 240.359 24.8 241.905 24.8C243.372 24.8 244.512 25.2467 245.325 26.14C246.139 27.0333 246.545 28.22 246.545 29.7ZM241.905 26.5C241.132 26.5 240.505 26.7267 240.025 27.18C239.559 27.6333 239.265 28.2933 239.145 29.16H244.545C244.439 28.32 244.152 27.6667 243.685 27.2C243.232 26.7333 242.639 26.5 241.905 26.5ZM254.386 24.8C254.853 24.8 255.22 24.8667 255.486 25L255.146 26.96C254.84 26.7867 254.42 26.7 253.886 26.7C253.46 26.7 253.053 26.8133 252.666 27.04C252.293 27.2667 251.98 27.6067 251.726 28.06C251.486 28.5133 251.366 29.06 251.366 29.7V35H249.226V25H251.046L251.226 26.8C251.786 25.4667 252.84 24.8 254.386 24.8ZM262.888 24.8C263.994 24.8 264.894 25.12 265.588 25.76C266.294 26.4 266.648 27.32 266.648 28.52V35H264.508V29.2C264.508 27.44 263.794 26.56 262.368 26.56C261.621 26.56 260.981 26.82 260.448 27.34C259.914 27.8467 259.648 28.6333 259.648 29.7V35H257.508V25H259.408L259.508 26.66C259.841 26.0333 260.301 25.5667 260.888 25.26C261.474 24.9533 262.141 24.8 262.888 24.8ZM273.51 35.2C272.497 35.2 271.597 35.0267 270.81 34.68C270.037 34.3333 269.45 33.8067 269.05 33.1L270.49 31.86C270.744 32.4333 271.137 32.8533 271.67 33.12C272.204 33.3867 272.844 33.52 273.59 33.52C274.27 33.52 274.797 33.4133 275.17 33.2C275.544 32.9733 275.73 32.68 275.73 32.32C275.73 32 275.557 31.7467 275.21 31.56C274.864 31.36 274.264 31.1733 273.41 31C271.93 30.72 270.89 30.3467 270.29 29.88C269.69 29.4133 269.39 28.7533 269.39 27.9C269.39 27.3533 269.557 26.8467 269.89 26.38C270.224 25.9 270.704 25.52 271.33 25.24C271.97 24.9467 272.724 24.8 273.59 24.8C274.697 24.8 275.584 24.9867 276.25 25.36C276.917 25.72 277.43 26.2867 277.79 27.06L276.27 28.18C276.03 27.5933 275.69 27.1667 275.25 26.9C274.824 26.62 274.277 26.48 273.61 26.48C273.01 26.48 272.51 26.6067 272.11 26.86C271.724 27.1 271.53 27.38 271.53 27.7C271.53 28.06 271.704 28.3467 272.05 28.56C272.41 28.7733 273.057 28.9667 273.99 29.14C275.404 29.3933 276.404 29.7533 276.99 30.22C277.577 30.6867 277.87 31.34 277.87 32.18C277.87 33.0733 277.484 33.8 276.71 34.36C275.937 34.92 274.87 35.2 273.51 35.2ZM285.856 24.8C286.963 24.8 287.863 25.12 288.556 25.76C289.263 26.4 289.616 27.32 289.616 28.52V35H287.476V29.2C287.476 27.44 286.763 26.56 285.336 26.56C284.59 26.56 283.95 26.82 283.416 27.34C282.883 27.86 282.616 28.6533 282.616 29.72V35H280.476V20.5H282.616V26.6C282.95 25.9867 283.39 25.5333 283.936 25.24C284.496 24.9467 285.136 24.8 285.856 24.8ZM293.939 23.32C293.486 23.32 293.133 23.2067 292.879 22.98C292.626 22.74 292.499 22.4067 292.499 21.98C292.499 21.5533 292.626 21.2267 292.879 21C293.133 20.7733 293.486 20.66 293.939 20.66C294.393 20.66 294.739 20.7733 294.979 21C295.233 21.2267 295.359 21.5533 295.359 21.98C295.359 22.4067 295.233 22.74 294.979 22.98C294.739 23.2067 294.393 23.32 293.939 23.32ZM294.999 35H292.859V25H294.999V35ZM303.728 24.8C305.101 24.8 306.181 25.26 306.967 26.18C307.754 27.0867 308.148 28.3533 308.148 29.98C308.148 31.6067 307.754 32.8867 306.967 33.82C306.181 34.74 305.101 35.2 303.728 35.2C303.008 35.2 302.361 35.04 301.788 34.72C301.228 34.4 300.794 33.96 300.488 33.4V39.2H298.348V25H300.228L300.328 26.86C300.621 26.2333 301.061 25.7333 301.648 25.36C302.248 24.9867 302.941 24.8 303.728 24.8ZM303.248 33.46C304.114 33.46 304.788 33.16 305.268 32.56C305.761 31.9467 306.008 31.0933 306.008 30C306.008 28.9067 305.761 28.0533 305.268 27.44C304.788 26.8267 304.114 26.52 303.248 26.52C302.434 26.52 301.781 26.7933 301.288 27.34C300.808 27.8867 300.541 28.6467 300.488 29.62V30.38C300.541 31.34 300.808 32.0933 301.288 32.64C301.781 33.1867 302.434 33.46 303.248 33.46ZM318.51 23.32C318.056 23.32 317.703 23.2067 317.45 22.98C317.196 22.74 317.07 22.4067 317.07 21.98C317.07 21.5533 317.196 21.2267 317.45 21C317.703 20.7733 318.056 20.66 318.51 20.66C318.963 20.66 319.31 20.7733 319.55 21C319.803 21.2267 319.93 21.5533 319.93 21.98C319.93 22.4067 319.803 22.74 319.55 22.98C319.31 23.2067 318.963 23.32 318.51 23.32ZM319.57 35H317.43V25H319.57V35ZM328.298 24.8C329.404 24.8 330.304 25.12 330.998 25.76C331.704 26.4 332.058 27.32 332.058 28.52V35H329.918V29.2C329.918 27.44 329.204 26.56 327.778 26.56C327.031 26.56 326.391 26.82 325.858 27.34C325.324 27.8467 325.058 28.6333 325.058 29.7V35H322.918V25H324.818L324.918 26.66C325.251 26.0333 325.711 25.5667 326.298 25.26C326.884 24.9533 327.551 24.8 328.298 24.8ZM342.885 20.66C343.311 20.66 343.651 20.78 343.905 21.02C344.171 21.26 344.305 21.58 344.305 21.98C344.305 22.38 344.171 22.7067 343.905 22.96C343.651 23.2 343.311 23.32 342.885 23.32C342.445 23.32 342.091 23.2 341.825 22.96C341.571 22.7067 341.445 22.38 341.445 21.98C341.445 21.58 341.571 21.26 341.825 21.02C342.091 20.78 342.445 20.66 342.885 20.66ZM343.945 35.88C343.945 37.0667 343.631 37.9333 343.005 38.48C342.391 39.0267 341.611 39.3 340.665 39.3C339.798 39.3 339.065 39.08 338.465 38.64L338.845 36.92C339.298 37.2933 339.811 37.48 340.385 37.48C340.838 37.48 341.185 37.34 341.425 37.06C341.678 36.78 341.805 36.32 341.805 35.68V25H343.945V35.88ZM355.913 33.6C356.207 33.6 356.453 33.5733 356.653 33.52L356.513 34.96C356.153 35.12 355.74 35.2 355.273 35.2C354.7 35.2 354.24 35.0867 353.893 34.86C353.56 34.6333 353.34 34.2533 353.233 33.72C352.927 34.1867 352.473 34.5533 351.873 34.82C351.273 35.0733 350.6 35.2 349.853 35.2C348.88 35.2 348.093 34.9733 347.493 34.52C346.893 34.0667 346.593 33.42 346.593 32.58C346.593 31.7933 346.92 31.1333 347.573 30.6C348.227 30.0533 349.2 29.6667 350.493 29.44L353.033 29V28.46C353.033 27.8467 352.853 27.3667 352.493 27.02C352.133 26.66 351.633 26.48 350.993 26.48C349.673 26.48 348.813 27.08 348.413 28.28L346.753 27.4C346.993 26.6 347.48 25.9667 348.213 25.5C348.96 25.0333 349.873 24.8 350.953 24.8C352.247 24.8 353.273 25.1 354.033 25.7C354.793 26.3 355.173 27.18 355.173 28.34V32.86C355.173 33.1133 355.227 33.3 355.333 33.42C355.453 33.54 355.647 33.6 355.913 33.6ZM350.313 33.58C351.033 33.58 351.667 33.4067 352.213 33.06C352.76 32.7133 353.033 32.2533 353.033 31.68V30.48L350.853 30.92C350.16 31.0533 349.647 31.24 349.313 31.48C348.98 31.72 348.813 32.04 348.813 32.44C348.813 32.8133 348.94 33.1 349.193 33.3C349.46 33.4867 349.833 33.58 350.313 33.58ZM364.06 24.8C365.166 24.8 366.066 25.12 366.76 25.76C367.466 26.4 367.82 27.32 367.82 28.52V35H365.68V29.2C365.68 27.44 364.966 26.56 363.54 26.56C362.793 26.56 362.153 26.82 361.62 27.34C361.086 27.8467 360.82 28.6333 360.82 29.7V35H358.68V25H360.58L360.68 26.66C361.013 26.0333 361.473 25.5667 362.06 25.26C362.646 24.9533 363.313 24.8 364.06 24.8ZM380.122 25V35H378.222L378.142 33.38C377.462 34.5933 376.276 35.2 374.582 35.2C373.502 35.2 372.629 34.9067 371.962 34.32C371.309 33.72 370.982 32.8067 370.982 31.58V25H373.122V31.02C373.122 31.9 373.296 32.5267 373.642 32.9C373.989 33.26 374.502 33.44 375.182 33.44C375.996 33.44 376.662 33.1867 377.182 32.68C377.716 32.16 377.982 31.4 377.982 30.4V25H380.122ZM392.085 33.6C392.378 33.6 392.625 33.5733 392.825 33.52L392.685 34.96C392.325 35.12 391.912 35.2 391.445 35.2C390.872 35.2 390.412 35.0867 390.065 34.86C389.732 34.6333 389.512 34.2533 389.405 33.72C389.098 34.1867 388.645 34.5533 388.045 34.82C387.445 35.0733 386.772 35.2 386.025 35.2C385.052 35.2 384.265 34.9733 383.665 34.52C383.065 34.0667 382.765 33.42 382.765 32.58C382.765 31.7933 383.092 31.1333 383.745 30.6C384.398 30.0533 385.372 29.6667 386.665 29.44L389.205 29V28.46C389.205 27.8467 389.025 27.3667 388.665 27.02C388.305 26.66 387.805 26.48 387.165 26.48C385.845 26.48 384.985 27.08 384.585 28.28L382.925 27.4C383.165 26.6 383.652 25.9667 384.385 25.5C385.132 25.0333 386.045 24.8 387.125 24.8C388.418 24.8 389.445 25.1 390.205 25.7C390.965 26.3 391.345 27.18 391.345 28.34V32.86C391.345 33.1133 391.398 33.3 391.505 33.42C391.625 33.54 391.818 33.6 392.085 33.6ZM386.485 33.58C387.205 33.58 387.838 33.4067 388.385 33.06C388.932 32.7133 389.205 32.2533 389.205 31.68V30.48L387.025 30.92C386.332 31.0533 385.818 31.24 385.485 31.48C385.152 31.72 384.985 32.04 384.985 32.44C384.985 32.8133 385.112 33.1 385.365 33.3C385.632 33.4867 386.005 33.58 386.485 33.58ZM400.011 24.8C400.478 24.8 400.845 24.8667 401.111 25L400.771 26.96C400.465 26.7867 400.045 26.7 399.511 26.7C399.085 26.7 398.678 26.8133 398.291 27.04C397.918 27.2667 397.605 27.6067 397.351 28.06C397.111 28.5133 396.991 29.06 396.991 29.7V35H394.851V25H396.671L396.851 26.8C397.411 25.4667 398.465 24.8 400.011 24.8ZM407.753 36.18C407.313 37.3267 406.813 38.1333 406.253 38.6C405.693 39.0667 404.959 39.3 404.053 39.3C403.533 39.3 403.079 39.2333 402.693 39.1C402.319 38.98 401.986 38.78 401.693 38.5L402.313 36.86C402.713 37.34 403.259 37.58 403.953 37.58C404.353 37.58 404.686 37.4733 404.953 37.26C405.233 37.06 405.479 36.6867 405.693 36.14L406.133 35.06L405.093 32.58L401.973 25H404.373L406.573 31.28L407.153 33.16L407.833 31.1L409.913 25H412.133L407.753 36.18ZM419.806 33.42C421.54 32.2067 422.886 31.18 423.846 30.34C424.806 29.4867 425.493 28.7133 425.906 28.02C426.333 27.3133 426.546 26.5867 426.546 25.84C426.546 25.1333 426.32 24.56 425.866 24.12C425.426 23.68 424.82 23.46 424.046 23.46C423.22 23.46 422.56 23.7333 422.066 24.28C421.586 24.8267 421.313 25.5867 421.246 26.56L419.386 25.7C419.52 24.4333 420.006 23.4333 420.846 22.7C421.686 21.9667 422.793 21.6 424.166 21.6C425.113 21.6 425.933 21.7867 426.626 22.16C427.32 22.52 427.846 23.0133 428.206 23.64C428.566 24.2667 428.746 24.9733 428.746 25.76C428.746 27.0267 428.273 28.2333 427.326 29.38C426.393 30.5267 424.833 31.8 422.646 33.2V33.24C423.313 33.1867 424.04 33.16 424.826 33.16H428.986V35H419.806V33.42ZM436.425 35.2C434.758 35.2 433.491 34.6267 432.625 33.48C431.771 32.32 431.345 30.6267 431.345 28.4C431.345 26.1733 431.771 24.4867 432.625 23.34C433.491 22.18 434.758 21.6 436.425 21.6C438.091 21.6 439.358 22.18 440.225 23.34C441.091 24.4867 441.525 26.1733 441.525 28.4C441.525 30.6267 441.091 32.32 440.225 33.48C439.358 34.6267 438.091 35.2 436.425 35.2ZM436.425 33.38C437.385 33.38 438.111 32.9667 438.605 32.14C439.098 31.3 439.345 30.0533 439.345 28.4C439.345 26.7467 439.098 25.5067 438.605 24.68C438.111 23.84 437.385 23.42 436.425 23.42C434.491 23.42 433.525 25.08 433.525 28.4C433.525 31.72 434.491 33.38 436.425 33.38ZM444.103 33.42C445.836 32.2067 447.183 31.18 448.143 30.34C449.103 29.4867 449.79 28.7133 450.203 28.02C450.63 27.3133 450.843 26.5867 450.843 25.84C450.843 25.1333 450.616 24.56 450.163 24.12C449.723 23.68 449.116 23.46 448.343 23.46C447.516 23.46 446.856 23.7333 446.363 24.28C445.883 24.8267 445.61 25.5867 445.543 26.56L443.683 25.7C443.816 24.4333 444.303 23.4333 445.143 22.7C445.983 21.9667 447.09 21.6 448.463 21.6C449.41 21.6 450.23 21.7867 450.923 22.16C451.616 22.52 452.143 23.0133 452.503 23.64C452.863 24.2667 453.043 24.9733 453.043 25.76C453.043 27.0267 452.57 28.2333 451.623 29.38C450.69 30.5267 449.13 31.8 446.943 33.2V33.24C447.61 33.1867 448.336 33.16 449.123 33.16H453.283V35H444.103V33.42ZM460.921 21.8V35H458.821V25.24C458.821 24.7867 458.828 24.4333 458.841 24.18C458.388 24.62 457.868 25 457.281 25.32C456.708 25.64 456.121 25.8667 455.521 26L455.121 24.14C455.468 24.1 455.915 23.9533 456.461 23.7C457.021 23.4467 457.548 23.1467 458.041 22.8C458.535 22.4533 458.895 22.12 459.121 21.8H460.921Z" fill="#0468FF"/>
</svg>
