<svg width="275" height="46" viewBox="0 0 275 46" fill="none" xmlns="http://www.w3.org/2000/svg">
<rect width="275" height="46" rx="23" fill="#0468FF"/>
<path d="M27.74 16.66C28.1667 16.66 28.5067 16.78 28.76 17.02C29.0267 17.26 29.16 17.58 29.16 17.98C29.16 18.38 29.0267 18.7067 28.76 18.96C28.5067 19.2 28.1667 19.32 27.74 19.32C27.3 19.32 26.9467 19.2 26.68 18.96C26.4267 18.7067 26.3 18.38 26.3 17.98C26.3 17.58 26.4267 17.26 26.68 17.02C26.9467 16.78 27.3 16.66 27.74 16.66ZM28.8 31.88C28.8 33.0667 28.4867 33.9333 27.86 34.48C27.2467 35.0267 26.4667 35.3 25.52 35.3C24.6533 35.3 23.92 35.08 23.32 34.64L23.7 32.92C24.1533 33.2933 24.6667 33.48 25.24 33.48C25.6933 33.48 26.04 33.34 26.28 33.06C26.5333 32.78 26.66 32.32 26.66 31.68V21H28.8V31.88ZM40.7688 29.6C41.0621 29.6 41.3088 29.5733 41.5088 29.52L41.3688 30.96C41.0088 31.12 40.5954 31.2 40.1288 31.2C39.5554 31.2 39.0954 31.0867 38.7488 30.86C38.4154 30.6333 38.1954 30.2533 38.0888 29.72C37.7821 30.1867 37.3288 30.5533 36.7288 30.82C36.1288 31.0733 35.4554 31.2 34.7088 31.2C33.7354 31.2 32.9488 30.9733 32.3488 30.52C31.7488 30.0667 31.4488 29.42 31.4488 28.58C31.4488 27.7933 31.7754 27.1333 32.4288 26.6C33.0821 26.0533 34.0554 25.6667 35.3488 25.44L37.8888 25V24.46C37.8888 23.8467 37.7088 23.3667 37.3488 23.02C36.9888 22.66 36.4888 22.48 35.8488 22.48C34.5288 22.48 33.6688 23.08 33.2688 24.28L31.6088 23.4C31.8488 22.6 32.3354 21.9667 33.0688 21.5C33.8154 21.0333 34.7288 20.8 35.8088 20.8C37.1021 20.8 38.1288 21.1 38.8888 21.7C39.6488 22.3 40.0288 23.18 40.0288 24.34V28.86C40.0288 29.1133 40.0821 29.3 40.1888 29.42C40.3088 29.54 40.5021 29.6 40.7688 29.6ZM35.1688 29.58C35.8888 29.58 36.5221 29.4067 37.0688 29.06C37.6154 28.7133 37.8888 28.2533 37.8888 27.68V26.48L35.7088 26.92C35.0154 27.0533 34.5021 27.24 34.1688 27.48C33.8354 27.72 33.6688 28.04 33.6688 28.44C33.6688 28.8133 33.7954 29.1 34.0488 29.3C34.3154 29.4867 34.6888 29.58 35.1688 29.58ZM45.615 28.08C45.615 28.5733 45.6883 28.92 45.835 29.12C45.9817 29.3067 46.255 29.4 46.655 29.4C46.9083 29.4 47.1217 29.3867 47.295 29.36C47.4817 29.32 47.7083 29.2467 47.975 29.14L47.735 30.86C47.2817 31.0867 46.7283 31.2 46.075 31.2C45.1817 31.2 44.5217 30.9733 44.095 30.52C43.6817 30.0667 43.475 29.3533 43.475 28.38V16.5H45.615V28.08ZM51.8455 28.08C51.8455 28.5733 51.9188 28.92 52.0655 29.12C52.2121 29.3067 52.4855 29.4 52.8855 29.4C53.1388 29.4 53.3521 29.3867 53.5255 29.36C53.7121 29.32 53.9388 29.2467 54.2055 29.14L53.9655 30.86C53.5121 31.0867 52.9588 31.2 52.3055 31.2C51.4121 31.2 50.7521 30.9733 50.3255 30.52C49.9121 30.0667 49.7055 29.3533 49.7055 28.38V16.5H51.8455V28.08ZM64.6555 29.6C64.9488 29.6 65.1955 29.5733 65.3955 29.52L65.2555 30.96C64.8955 31.12 64.4821 31.2 64.0155 31.2C63.4421 31.2 62.9821 31.0867 62.6355 30.86C62.3021 30.6333 62.0821 30.2533 61.9755 29.72C61.6688 30.1867 61.2155 30.5533 60.6155 30.82C60.0155 31.0733 59.3421 31.2 58.5955 31.2C57.6221 31.2 56.8355 30.9733 56.2355 30.52C55.6355 30.0667 55.3355 29.42 55.3355 28.58C55.3355 27.7933 55.6621 27.1333 56.3155 26.6C56.9688 26.0533 57.9421 25.6667 59.2355 25.44L61.7755 25V24.46C61.7755 23.8467 61.5955 23.3667 61.2355 23.02C60.8755 22.66 60.3755 22.48 59.7355 22.48C58.4155 22.48 57.5555 23.08 57.1555 24.28L55.4955 23.4C55.7355 22.6 56.2221 21.9667 56.9555 21.5C57.7021 21.0333 58.6155 20.8 59.6955 20.8C60.9888 20.8 62.0155 21.1 62.7755 21.7C63.5355 22.3 63.9155 23.18 63.9155 24.34V28.86C63.9155 29.1133 63.9688 29.3 64.0755 29.42C64.1955 29.54 64.3888 29.6 64.6555 29.6ZM59.0555 29.58C59.7755 29.58 60.4088 29.4067 60.9555 29.06C61.5021 28.7133 61.7755 28.2533 61.7755 27.68V26.48L59.5955 26.92C58.9021 27.0533 58.3888 27.24 58.0555 27.48C57.7221 27.72 57.5555 28.04 57.5555 28.44C57.5555 28.8133 57.6821 29.1 57.9355 29.3C58.2021 29.4867 58.5755 29.58 59.0555 29.58ZM68.5017 19.32C68.0484 19.32 67.6951 19.2067 67.4417 18.98C67.1884 18.74 67.0617 18.4067 67.0617 17.98C67.0617 17.5533 67.1884 17.2267 67.4417 17C67.6951 16.7733 68.0484 16.66 68.5017 16.66C68.9551 16.66 69.3017 16.7733 69.5417 17C69.7951 17.2267 69.9217 17.5533 69.9217 17.98C69.9217 18.4067 69.7951 18.74 69.5417 18.98C69.3017 19.2067 68.9551 19.32 68.5017 19.32ZM69.5617 31H67.4217V21H69.5617V31ZM76.53 31.2C75.5167 31.2 74.6167 31.0267 73.83 30.68C73.0567 30.3333 72.47 29.8067 72.07 29.1L73.51 27.86C73.7633 28.4333 74.1567 28.8533 74.69 29.12C75.2233 29.3867 75.8633 29.52 76.61 29.52C77.29 29.52 77.8167 29.4133 78.19 29.2C78.5633 28.9733 78.75 28.68 78.75 28.32C78.75 28 78.5767 27.7467 78.23 27.56C77.8833 27.36 77.2833 27.1733 76.43 27C74.95 26.72 73.91 26.3467 73.31 25.88C72.71 25.4133 72.41 24.7533 72.41 23.9C72.41 23.3533 72.5767 22.8467 72.91 22.38C73.2433 21.9 73.7233 21.52 74.35 21.24C74.99 20.9467 75.7433 20.8 76.61 20.8C77.7167 20.8 78.6033 20.9867 79.27 21.36C79.9367 21.72 80.45 22.2867 80.81 23.06L79.29 24.18C79.05 23.5933 78.71 23.1667 78.27 22.9C77.8433 22.62 77.2967 22.48 76.63 22.48C76.03 22.48 75.53 22.6067 75.13 22.86C74.7433 23.1 74.55 23.38 74.55 23.7C74.55 24.06 74.7233 24.3467 75.07 24.56C75.43 24.7733 76.0767 24.9667 77.01 25.14C78.4233 25.3933 79.4233 25.7533 80.01 26.22C80.5967 26.6867 80.89 27.34 80.89 28.18C80.89 29.0733 80.5033 29.8 79.73 30.36C78.9567 30.92 77.89 31.2 76.53 31.2ZM95.5559 20.8C96.2226 20.8 96.8359 20.94 97.3959 21.22C97.9559 21.4867 98.4026 21.9 98.7359 22.46C99.0693 23.02 99.2359 23.7067 99.2359 24.52V31H97.0959V24.86C97.0959 24.0733 96.9093 23.4933 96.5359 23.12C96.1626 22.7467 95.6626 22.56 95.0359 22.56C94.3026 22.56 93.6826 22.8267 93.1759 23.36C92.6826 23.8933 92.4359 24.6267 92.4359 25.56V31H90.2959V24.86C90.2959 24.0733 90.1093 23.4933 89.7359 23.12C89.3626 22.7467 88.8626 22.56 88.2359 22.56C87.8093 22.56 87.3959 22.6733 86.9959 22.9C86.5959 23.1133 86.2693 23.4533 86.0159 23.92C85.7626 24.3867 85.6359 24.9733 85.6359 25.68V31H83.4959V21H85.3959L85.4959 22.66C85.8293 22.0467 86.2826 21.5867 86.8559 21.28C87.4293 20.96 88.0559 20.8 88.7359 20.8C89.4826 20.8 90.1559 20.9733 90.7559 21.32C91.3693 21.6533 91.8226 22.1467 92.1159 22.8C92.4226 22.1467 92.8893 21.6533 93.5159 21.32C94.1559 20.9733 94.8359 20.8 95.5559 20.8ZM111.12 29.6C111.414 29.6 111.66 29.5733 111.86 29.52L111.72 30.96C111.36 31.12 110.947 31.2 110.48 31.2C109.907 31.2 109.447 31.0867 109.1 30.86C108.767 30.6333 108.547 30.2533 108.44 29.72C108.134 30.1867 107.68 30.5533 107.08 30.82C106.48 31.0733 105.807 31.2 105.06 31.2C104.087 31.2 103.3 30.9733 102.7 30.52C102.1 30.0667 101.8 29.42 101.8 28.58C101.8 27.7933 102.127 27.1333 102.78 26.6C103.434 26.0533 104.407 25.6667 105.7 25.44L108.24 25V24.46C108.24 23.8467 108.06 23.3667 107.7 23.02C107.34 22.66 106.84 22.48 106.2 22.48C104.88 22.48 104.02 23.08 103.62 24.28L101.96 23.4C102.2 22.6 102.687 21.9667 103.42 21.5C104.167 21.0333 105.08 20.8 106.16 20.8C107.454 20.8 108.48 21.1 109.24 21.7C110 22.3 110.38 23.18 110.38 24.34V28.86C110.38 29.1133 110.434 29.3 110.54 29.42C110.66 29.54 110.854 29.6 111.12 29.6ZM105.52 29.58C106.24 29.58 106.874 29.4067 107.42 29.06C107.967 28.7133 108.24 28.2533 108.24 27.68V26.48L106.06 26.92C105.367 27.0533 104.854 27.24 104.52 27.48C104.187 27.72 104.02 28.04 104.02 28.44C104.02 28.8133 104.147 29.1 104.4 29.3C104.667 29.4867 105.04 29.58 105.52 29.58ZM122.807 25.7C122.807 26.0867 122.78 26.4533 122.727 26.8H115.407C115.527 27.68 115.84 28.3533 116.347 28.82C116.854 29.2733 117.507 29.5 118.307 29.5C118.96 29.5 119.5 29.3867 119.927 29.16C120.367 28.92 120.667 28.58 120.827 28.14L122.607 28.88C121.86 30.4267 120.427 31.2 118.307 31.2C116.734 31.2 115.5 30.74 114.607 29.82C113.727 28.9 113.287 27.6267 113.287 26C113.287 24.36 113.714 23.0867 114.567 22.18C115.42 21.26 116.62 20.8 118.167 20.8C119.634 20.8 120.774 21.2467 121.587 22.14C122.4 23.0333 122.807 24.22 122.807 25.7ZM118.167 22.5C117.394 22.5 116.767 22.7267 116.287 23.18C115.82 23.6333 115.527 24.2933 115.407 25.16H120.807C120.7 24.32 120.414 23.6667 119.947 23.2C119.494 22.7333 118.9 22.5 118.167 22.5ZM127.568 28.08C127.568 28.5733 127.641 28.92 127.788 29.12C127.935 29.3067 128.208 29.4 128.608 29.4C128.861 29.4 129.075 29.3867 129.248 29.36C129.435 29.32 129.661 29.2467 129.928 29.14L129.688 30.86C129.235 31.0867 128.681 31.2 128.028 31.2C127.135 31.2 126.475 30.9733 126.048 30.52C125.635 30.0667 125.428 29.3533 125.428 28.38V16.5H127.568V28.08ZM140.119 17.8C141.879 17.8 143.365 18.1467 144.579 18.84C145.792 19.52 146.705 20.46 147.319 21.66C147.932 22.86 148.239 24.24 148.239 25.8C148.239 26.8933 148.072 27.84 147.739 28.64C147.419 29.4267 146.965 30.0267 146.379 30.44C145.805 30.8533 145.145 31.06 144.399 31.06C143.719 31.06 143.179 30.8933 142.779 30.56C142.379 30.2267 142.099 29.8 141.939 29.28C141.579 29.8267 141.112 30.2467 140.539 30.54C139.965 30.8333 139.299 30.98 138.539 30.98C137.899 30.98 137.325 30.82 136.819 30.5C136.312 30.1667 135.912 29.7067 135.619 29.12C135.325 28.52 135.179 27.82 135.179 27.02C135.179 25.9133 135.392 24.96 135.819 24.16C136.259 23.3467 136.825 22.7333 137.519 22.32C138.225 21.8933 138.985 21.68 139.799 21.68C141.225 21.68 142.152 22.24 142.579 23.36L142.979 21.82H144.439L143.619 27.9C143.592 28.14 143.579 28.3133 143.579 28.42C143.579 29.3267 143.985 29.78 144.799 29.78C145.465 29.78 145.979 29.4467 146.339 28.78C146.712 28.1 146.899 27.1067 146.899 25.8C146.899 24.44 146.639 23.26 146.119 22.26C145.599 21.2467 144.832 20.4667 143.819 19.92C142.805 19.36 141.572 19.08 140.119 19.08C138.612 19.08 137.299 19.3867 136.179 20C135.072 20.6 134.219 21.46 133.619 22.58C133.019 23.7 132.719 25.02 132.719 26.54C132.719 27.9667 133.019 29.2133 133.619 30.28C134.232 31.3467 135.059 32.16 136.099 32.72C137.139 33.28 138.299 33.56 139.579 33.56C140.605 33.56 141.425 33.4533 142.039 33.24C142.665 33.0267 143.259 32.72 143.819 32.32L144.559 33.32C143.852 33.8133 143.132 34.1867 142.399 34.44C141.679 34.7067 140.732 34.84 139.559 34.84C137.932 34.84 136.492 34.5 135.239 33.82C133.985 33.14 133.012 32.1733 132.319 30.92C131.625 29.6667 131.279 28.2067 131.279 26.54C131.279 24.82 131.645 23.3 132.379 21.98C133.112 20.66 134.145 19.6333 135.479 18.9C136.825 18.1667 138.372 17.8 140.119 17.8ZM140.019 23.18C139.125 23.18 138.405 23.5067 137.859 24.16C137.325 24.8 137.059 25.6933 137.059 26.84C137.059 27.6667 137.245 28.3133 137.619 28.78C137.992 29.2333 138.519 29.46 139.199 29.46C139.879 29.46 140.479 29.2467 140.999 28.82C141.519 28.38 141.825 27.76 141.919 26.96L142.079 25.78C142.105 25.54 142.119 25.36 142.119 25.24C142.119 24.6 141.945 24.1 141.599 23.74C141.265 23.3667 140.739 23.18 140.019 23.18ZM156.992 29.44C158.005 29.44 158.792 29.6667 159.352 30.12C159.912 30.5733 160.192 31.2 160.192 32C160.192 32.68 159.965 33.2667 159.512 33.76C159.072 34.2533 158.458 34.6333 157.672 34.9C156.898 35.1667 156.025 35.3 155.052 35.3C153.465 35.3 152.272 35.0667 151.472 34.6C150.685 34.1333 150.292 33.5133 150.292 32.74C150.292 32.2867 150.445 31.8867 150.752 31.54C151.072 31.2067 151.512 30.9667 152.072 30.82C151.645 30.62 151.305 30.3667 151.052 30.06C150.798 29.74 150.672 29.36 150.672 28.92C150.672 27.9467 151.192 27.28 152.232 26.92C151.725 26.6267 151.338 26.2467 151.072 25.78C150.818 25.3133 150.692 24.78 150.692 24.18C150.692 23.5133 150.872 22.9267 151.232 22.42C151.592 21.9 152.098 21.5 152.752 21.22C153.418 20.94 154.178 20.8 155.032 20.8C155.765 20.8 156.438 20.9067 157.052 21.12C157.238 20.3867 157.572 19.8333 158.052 19.46C158.545 19.0733 159.192 18.8867 159.992 18.9L160.352 20.56C159.712 20.5467 159.192 20.6267 158.792 20.8C158.405 20.9733 158.138 21.2333 157.992 21.58C158.432 21.8867 158.772 22.26 159.012 22.7C159.252 23.14 159.372 23.6333 159.372 24.18C159.372 25.2067 158.972 26.0267 158.172 26.64C157.385 27.2533 156.338 27.56 155.032 27.56C154.418 27.56 153.865 27.5 153.372 27.38C153.038 27.46 152.792 27.5933 152.632 27.78C152.485 27.9533 152.412 28.1867 152.412 28.48C152.412 28.7867 152.518 29.0267 152.732 29.2C152.958 29.36 153.265 29.44 153.652 29.44H156.992ZM155.032 22.3C154.418 22.3 153.905 22.48 153.492 22.84C153.078 23.1867 152.872 23.6333 152.872 24.18C152.872 24.74 153.078 25.2 153.492 25.56C153.905 25.9067 154.418 26.08 155.032 26.08C155.658 26.08 156.172 25.9067 156.572 25.56C156.985 25.2 157.192 24.74 157.192 24.18C157.192 23.62 156.985 23.1667 156.572 22.82C156.172 22.4733 155.658 22.3 155.032 22.3ZM155.252 33.7C156.225 33.7 156.985 33.56 157.532 33.28C158.078 33 158.352 32.6533 158.352 32.24C158.352 31.9067 158.218 31.6533 157.952 31.48C157.685 31.3067 157.238 31.22 156.612 31.22H153.912C153.312 31.22 152.858 31.3133 152.552 31.5C152.258 31.6867 152.112 31.9467 152.112 32.28C152.112 32.7333 152.372 33.08 152.892 33.32C153.425 33.5733 154.212 33.7 155.252 33.7ZM174.306 20.8C174.973 20.8 175.586 20.94 176.146 21.22C176.706 21.4867 177.153 21.9 177.486 22.46C177.819 23.02 177.986 23.7067 177.986 24.52V31H175.846V24.86C175.846 24.0733 175.659 23.4933 175.286 23.12C174.913 22.7467 174.413 22.56 173.786 22.56C173.053 22.56 172.433 22.8267 171.926 23.36C171.433 23.8933 171.186 24.6267 171.186 25.56V31H169.046V24.86C169.046 24.0733 168.859 23.4933 168.486 23.12C168.113 22.7467 167.613 22.56 166.986 22.56C166.559 22.56 166.146 22.6733 165.746 22.9C165.346 23.1133 165.019 23.4533 164.766 23.92C164.513 24.3867 164.386 24.9733 164.386 25.68V31H162.246V21H164.146L164.246 22.66C164.579 22.0467 165.033 21.5867 165.606 21.28C166.179 20.96 166.806 20.8 167.486 20.8C168.233 20.8 168.906 20.9733 169.506 21.32C170.119 21.6533 170.573 22.1467 170.866 22.8C171.173 22.1467 171.639 21.6533 172.266 21.32C172.906 20.9733 173.586 20.8 174.306 20.8ZM189.87 29.6C190.164 29.6 190.41 29.5733 190.61 29.52L190.47 30.96C190.11 31.12 189.697 31.2 189.23 31.2C188.657 31.2 188.197 31.0867 187.85 30.86C187.517 30.6333 187.297 30.2533 187.19 29.72C186.884 30.1867 186.43 30.5533 185.83 30.82C185.23 31.0733 184.557 31.2 183.81 31.2C182.837 31.2 182.05 30.9733 181.45 30.52C180.85 30.0667 180.55 29.42 180.55 28.58C180.55 27.7933 180.877 27.1333 181.53 26.6C182.184 26.0533 183.157 25.6667 184.45 25.44L186.99 25V24.46C186.99 23.8467 186.81 23.3667 186.45 23.02C186.09 22.66 185.59 22.48 184.95 22.48C183.63 22.48 182.77 23.08 182.37 24.28L180.71 23.4C180.95 22.6 181.437 21.9667 182.17 21.5C182.917 21.0333 183.83 20.8 184.91 20.8C186.204 20.8 187.23 21.1 187.99 21.7C188.75 22.3 189.13 23.18 189.13 24.34V28.86C189.13 29.1133 189.184 29.3 189.29 29.42C189.41 29.54 189.604 29.6 189.87 29.6ZM184.27 29.58C184.99 29.58 185.624 29.4067 186.17 29.06C186.717 28.7133 186.99 28.2533 186.99 27.68V26.48L184.81 26.92C184.117 27.0533 183.604 27.24 183.27 27.48C182.937 27.72 182.77 28.04 182.77 28.44C182.77 28.8133 182.897 29.1 183.15 29.3C183.417 29.4867 183.79 29.58 184.27 29.58ZM193.717 19.32C193.263 19.32 192.91 19.2067 192.657 18.98C192.403 18.74 192.277 18.4067 192.277 17.98C192.277 17.5533 192.403 17.2267 192.657 17C192.91 16.7733 193.263 16.66 193.717 16.66C194.17 16.66 194.517 16.7733 194.757 17C195.01 17.2267 195.137 17.5533 195.137 17.98C195.137 18.4067 195.01 18.74 194.757 18.98C194.517 19.2067 194.17 19.32 193.717 19.32ZM194.777 31H192.637V21H194.777V31ZM200.205 28.08C200.205 28.5733 200.278 28.92 200.425 29.12C200.572 29.3067 200.845 29.4 201.245 29.4C201.498 29.4 201.712 29.3867 201.885 29.36C202.072 29.32 202.298 29.2467 202.565 29.14L202.325 30.86C201.872 31.0867 201.318 31.2 200.665 31.2C199.772 31.2 199.112 30.9733 198.685 30.52C198.272 30.0667 198.065 29.3533 198.065 28.38V16.5H200.205V28.08ZM205.553 28.3C206.006 28.3 206.366 28.4333 206.633 28.7C206.913 28.9533 207.053 29.3 207.053 29.74C207.053 30.18 206.913 30.5333 206.633 30.8C206.366 31.0667 206.006 31.2 205.553 31.2C205.099 31.2 204.733 31.0667 204.453 30.8C204.173 30.5333 204.033 30.18 204.033 29.74C204.033 29.3 204.166 28.9533 204.433 28.7C204.713 28.4333 205.086 28.3 205.553 28.3ZM213.99 20.8C216.176 20.8 217.623 21.7333 218.33 23.6L216.33 24.4C215.983 23.1333 215.203 22.5 213.99 22.5C213.096 22.5 212.403 22.8067 211.91 23.42C211.416 24.0333 211.17 24.9 211.17 26.02C211.17 27.14 211.416 28 211.91 28.6C212.403 29.2 213.096 29.5 213.99 29.5C214.67 29.5 215.216 29.3333 215.63 29C216.043 28.6667 216.316 28.1867 216.45 27.56L218.41 28.22C218.116 29.1533 217.596 29.8867 216.85 30.42C216.103 30.94 215.163 31.2 214.03 31.2C212.456 31.2 211.223 30.74 210.33 29.82C209.45 28.9 209.01 27.6267 209.01 26C209.01 24.3733 209.45 23.1 210.33 22.18C211.21 21.26 212.43 20.8 213.99 20.8ZM225.318 20.8C226.878 20.8 228.098 21.26 228.978 22.18C229.858 23.1 230.298 24.3733 230.298 26C230.298 27.6267 229.858 28.9 228.978 29.82C228.098 30.74 226.878 31.2 225.318 31.2C223.758 31.2 222.538 30.74 221.658 29.82C220.778 28.9 220.338 27.6267 220.338 26C220.338 24.3733 220.778 23.1 221.658 22.18C222.538 21.26 223.758 20.8 225.318 20.8ZM225.318 22.48C224.411 22.48 223.711 22.7867 223.218 23.4C222.738 24 222.498 24.8667 222.498 26C222.498 27.1333 222.738 28.0067 223.218 28.62C223.711 29.22 224.411 29.52 225.318 29.52C226.224 29.52 226.924 29.2133 227.418 28.6C227.911 27.9867 228.158 27.12 228.158 26C228.158 24.88 227.911 24.0133 227.418 23.4C226.924 22.7867 226.224 22.48 225.318 22.48ZM245.107 20.8C245.773 20.8 246.387 20.94 246.947 21.22C247.507 21.4867 247.953 21.9 248.287 22.46C248.62 23.02 248.787 23.7067 248.787 24.52V31H246.647V24.86C246.647 24.0733 246.46 23.4933 246.087 23.12C245.713 22.7467 245.213 22.56 244.587 22.56C243.853 22.56 243.233 22.8267 242.727 23.36C242.233 23.8933 241.987 24.6267 241.987 25.56V31H239.847V24.86C239.847 24.0733 239.66 23.4933 239.287 23.12C238.913 22.7467 238.413 22.56 237.787 22.56C237.36 22.56 236.947 22.6733 236.547 22.9C236.147 23.1133 235.82 23.4533 235.567 23.92C235.313 24.3867 235.187 24.9733 235.187 25.68V31H233.047V21H234.947L235.047 22.66C235.38 22.0467 235.833 21.5867 236.407 21.28C236.98 20.96 237.607 20.8 238.287 20.8C239.033 20.8 239.707 20.9733 240.307 21.32C240.92 21.6533 241.373 22.1467 241.667 22.8C241.973 22.1467 242.44 21.6533 243.067 21.32C243.707 20.9733 244.387 20.8 245.107 20.8Z" fill="white"/>
</svg>
